<?xml version="1.0" encoding="utf-8"?>
<!-- Generator: Adobe Illustrator 16.0.4, SVG Export Plug-In . SVG Version: 6.00 Build 0)  -->
<!DOCTYPE svg PUBLIC "-//W3C//DTD SVG 1.1//EN" "http://www.w3.org/Graphics/SVG/1.1/DTD/svg11.dtd">
<svg version="1.1" id="Layer_1" xmlns="http://www.w3.org/2000/svg" xmlns:xlink="http://www.w3.org/1999/xlink" x="0px" y="0px"
	 width="161.234px" height="78.332px" viewBox="0 0 161.234 78.332" enable-background="new 0 0 161.234 78.332"
	 xml:space="preserve">
<g>
	<path d="M0.552,21.794h3.744v1.488h0.072c0.84-1.104,2.04-1.848,3.72-1.848c3.264,0,5.256,2.808,5.256,6.504
		c0,3.984-2.136,6.528-5.352,6.528c-1.584,0-2.712-0.624-3.48-1.656H4.464v5.328H0.552V21.794z M9.385,28.083
		c0-2.112-0.792-3.504-2.473-3.504c-1.704,0-2.568,1.512-2.568,3.504s0.96,3.36,2.64,3.36C8.473,31.443,9.385,30.171,9.385,28.083z"
		/>
	<path d="M14.567,29.859v-8.064h3.889v7.249c0,1.344,0.6,2.088,1.848,2.088c1.344,0,2.16-1.008,2.16-2.472v-6.865h3.912v12.289
		h-3.744v-1.512h-0.072c-0.888,1.2-1.968,1.872-3.672,1.872C16.056,34.443,14.567,32.595,14.567,29.859z"/>
	<path d="M32.04,32.523h-0.048v1.56h-3.744V16.922h3.913v6.265h0.072c0.768-1.056,1.824-1.752,3.504-1.752
		c3.192,0,5.256,2.808,5.256,6.504c0,4.081-2.064,6.528-5.232,6.528C34.128,34.467,32.808,33.795,32.04,32.523z M37.032,27.915
		c0-2.112-0.84-3.504-2.424-3.504c-1.729,0-2.568,1.512-2.568,3.528c0,2.04,1.008,3.432,2.616,3.432
		C36.192,31.371,37.032,30.051,37.032,27.915z"/>
	<path d="M42.335,16.922h3.96v17.162h-3.96V16.922z"/>
	<path d="M48.191,16.922h3.913v3.168h-3.913V16.922z M48.191,21.794h3.913v12.289h-3.913V21.794z"/>
	<path d="M53.423,27.963c0-3.696,2.544-6.504,6.433-6.504c3.336,0,5.473,1.944,5.833,4.704H61.92
		c-0.24-1.104-0.912-1.824-2.016-1.824c-1.68,0-2.521,1.392-2.521,3.624c0,2.184,0.84,3.576,2.521,3.576
		c1.224,0,1.968-0.72,2.136-2.112h3.744c-0.096,2.832-2.352,5.04-5.833,5.04C55.991,34.467,53.423,31.659,53.423,27.963z"/>
	<path d="M70.774,16.922h3.96v17.162h-3.96V16.922z"/>
	<path d="M76.631,16.922h3.912v3.168h-3.912V16.922z M76.631,21.794h3.912v12.289h-3.912V21.794z"/>
	<path d="M86.207,32.523h-0.049v1.56h-3.744V16.922h3.913v6.265h0.071c0.769-1.056,1.824-1.752,3.505-1.752
		c3.192,0,5.257,2.808,5.257,6.504c0,4.081-2.064,6.528-5.232,6.528C88.295,34.467,86.975,33.795,86.207,32.523z M91.199,27.915
		c0-2.112-0.84-3.504-2.424-3.504c-1.729,0-2.568,1.512-2.568,3.528c0,2.04,1.008,3.432,2.616,3.432
		C90.359,31.371,91.199,30.051,91.199,27.915z"/>
	<path d="M96.479,21.794h3.744v1.92h0.072c0.864-1.464,1.872-2.112,3.36-2.112c0.36,0,0.601,0.024,0.769,0.096v3.36h-0.097
		c-2.399-0.336-3.937,0.84-3.937,3.504v5.521h-3.912V21.794z"/>
	<path d="M104.734,30.651c0-2.712,2.16-3.528,4.705-3.865c2.304-0.288,3.119-0.528,3.119-1.368c0-0.792-0.504-1.32-1.68-1.32
		c-1.248,0-1.872,0.552-1.992,1.584h-3.6c0.096-2.28,1.848-4.224,5.568-4.224c1.848,0,3.096,0.336,3.984,1.008
		c1.056,0.768,1.56,1.968,1.56,3.504v6.193c0,0.984,0.097,1.536,0.433,1.752v0.168h-3.793c-0.191-0.264-0.312-0.744-0.408-1.368
		h-0.048c-0.72,1.032-1.8,1.68-3.647,1.68C106.486,34.396,104.734,33.075,104.734,30.651z M112.655,29.691v-1.464
		c-0.504,0.264-1.224,0.456-2.017,0.648c-1.512,0.336-2.136,0.72-2.136,1.656c0,0.984,0.72,1.368,1.681,1.368
		C111.646,31.899,112.655,31.011,112.655,29.691z"/>
	<path d="M118.294,21.794h3.744v1.92h0.072c0.864-1.464,1.872-2.112,3.36-2.112c0.359,0,0.6,0.024,0.768,0.096v3.36h-0.096
		c-2.4-0.336-3.936,0.84-3.936,3.504v5.521h-3.913V21.794z"/>
	<path d="M128.134,35.092h1.344c1.152,0,1.608-0.456,1.608-1.296c0-0.528-0.24-1.248-0.744-2.544l-3.624-9.457h4.128l1.656,5.232
		c0.385,1.2,0.768,2.832,0.768,2.832h0.049c0,0,0.336-1.632,0.72-2.832l1.608-5.232h3.912l-4.248,12.457
		c-0.984,2.88-2.16,3.888-4.633,3.888h-2.544V35.092z"/>
	<path d="M0.552,36.922h3.913v3.168H0.552V36.922z M0.552,41.794h3.913v12.289H0.552V41.794z"/>
	<path d="M6.335,41.794h3.769v1.68h0.072c0.912-1.32,2.088-2.04,3.792-2.04c2.688,0,4.272,1.92,4.272,4.656v7.992h-3.913v-7.2
		c0-1.296-0.648-2.184-1.92-2.184c-1.296,0-2.16,1.08-2.16,2.592v6.792H6.335V41.794z"/>
	<path d="M20.015,41.794h3.769v1.68h0.072c0.912-1.32,2.088-2.04,3.792-2.04c2.688,0,4.272,1.92,4.272,4.656v7.992h-3.913v-7.2
		c0-1.296-0.648-2.184-1.92-2.184c-1.296,0-2.16,1.08-2.16,2.592v6.792h-3.913V41.794z"/>
	<path d="M33.143,47.963c0-3.696,2.641-6.504,6.577-6.504c3.96,0,6.553,2.808,6.553,6.504s-2.592,6.505-6.553,6.505
		C35.783,54.468,33.143,51.659,33.143,47.963z M42.312,47.963c0-2.232-0.912-3.744-2.616-3.744s-2.592,1.512-2.592,3.744
		c0,2.232,0.888,3.72,2.592,3.72S42.312,50.195,42.312,47.963z"/>
	<path d="M46.103,41.794h4.032l1.68,5.544c0.36,1.225,0.672,2.473,0.672,2.473h0.048c0,0,0.312-1.248,0.672-2.473l1.704-5.544h3.912
		l-4.248,12.289h-4.225L46.103,41.794z"/>
	<path d="M58.631,50.651c0-2.713,2.16-3.528,4.705-3.865c2.304-0.287,3.12-0.527,3.12-1.367c0-0.792-0.504-1.32-1.68-1.32
		c-1.248,0-1.872,0.552-1.992,1.584h-3.6c0.096-2.28,1.848-4.224,5.568-4.224c1.848,0,3.096,0.336,3.985,1.008
		c1.056,0.768,1.56,1.968,1.56,3.504v6.192c0,0.984,0.097,1.537,0.433,1.752v0.168h-3.793c-0.191-0.264-0.312-0.744-0.408-1.367
		h-0.048c-0.72,1.031-1.8,1.68-3.648,1.68C60.383,54.396,58.631,53.075,58.631,50.651z M66.552,49.69v-1.463
		c-0.504,0.264-1.224,0.455-2.016,0.647c-1.512,0.336-2.136,0.72-2.136,1.656c0,0.983,0.72,1.368,1.68,1.368
		C65.543,51.899,66.552,51.011,66.552,49.69z"/>
	<path d="M72.91,50.843v-6.6h-1.631v-2.448h1.631v-3.888h3.816v3.888h2.232v2.448h-2.232v5.76c0,0.961,0.529,1.2,1.369,1.2
		c0.336,0,0.72-0.024,0.863-0.024v2.857c-0.336,0.096-1.08,0.191-2.136,0.191C74.543,54.228,72.91,53.483,72.91,50.843z"/>
	<path d="M80.375,36.922h3.912v3.168h-3.912V36.922z M80.375,41.794h3.912v12.289h-3.912V41.794z"/>
	<path d="M85.606,47.963c0-3.696,2.641-6.504,6.577-6.504c3.96,0,6.553,2.808,6.553,6.504s-2.593,6.505-6.553,6.505
		C88.247,54.468,85.606,51.659,85.606,47.963z M94.775,47.963c0-2.232-0.912-3.744-2.616-3.744s-2.593,1.512-2.593,3.744
		c0,2.232,0.889,3.72,2.593,3.72S94.775,50.195,94.775,47.963z"/>
	<path d="M100.055,41.794h3.769v1.68h0.071c0.912-1.32,2.089-2.04,3.793-2.04c2.688,0,4.272,1.92,4.272,4.656v7.992h-3.913v-7.2
		c0-1.296-0.647-2.184-1.92-2.184c-1.296,0-2.16,1.08-2.16,2.592v6.792h-3.912V41.794z"/>
	<path d="M0,67.915c0-3.672,2.568-6.48,6.312-6.48c1.752,0,3.144,0.576,4.2,1.536c1.464,1.344,2.184,3.479,2.16,5.977H3.84
		c0.24,1.655,1.152,2.688,2.76,2.688c1.032,0,1.705-0.457,2.041-1.225h3.816c-0.264,1.104-0.984,2.16-2.064,2.904
		c-1.032,0.721-2.28,1.128-3.84,1.128C2.496,74.443,0,71.636,0,67.915z M8.712,66.618c-0.144-1.463-1.056-2.399-2.328-2.399
		c-1.488,0-2.256,0.937-2.52,2.399H8.712z"/>
	<path d="M16.656,67.627l-3.864-5.833h4.464l1.824,3.169h0.048l1.728-3.169h4.104l-3.648,5.785l4.176,6.504h-4.536l-2.016-3.672
		h-0.048l-2.232,3.672h-4.272L16.656,67.627z"/>
	<path d="M25.08,67.963c0-3.696,2.544-6.505,6.433-6.505c3.336,0,5.473,1.944,5.833,4.705h-3.768
		c-0.24-1.104-0.912-1.824-2.016-1.824c-1.68,0-2.521,1.393-2.521,3.624c0,2.185,0.84,3.576,2.521,3.576
		c1.224,0,1.968-0.72,2.136-2.112h3.744c-0.096,2.832-2.352,5.041-5.833,5.041C27.648,74.468,25.08,71.659,25.08,67.963z"/>
	<path d="M38.688,56.922h3.913v6.385h0.072c0.888-1.177,1.944-1.872,3.648-1.872c2.688,0,4.272,1.92,4.272,4.656v7.992h-3.913v-7.2
		c0-1.296-0.648-2.185-1.92-2.185c-1.296,0-2.16,1.08-2.16,2.593v6.792h-3.913V56.922z"/>
	<path d="M51.792,70.651c0-2.713,2.16-3.528,4.705-3.865c2.304-0.287,3.12-0.527,3.12-1.367c0-0.793-0.504-1.32-1.68-1.32
		c-1.248,0-1.872,0.553-1.992,1.584h-3.6c0.096-2.28,1.848-4.225,5.568-4.225c1.848,0,3.096,0.336,3.984,1.008
		c1.056,0.769,1.56,1.969,1.56,3.505v6.192c0,0.984,0.096,1.537,0.432,1.752v0.168h-3.792c-0.192-0.264-0.312-0.744-0.408-1.367
		H59.64c-0.72,1.031-1.8,1.68-3.648,1.68C53.544,74.396,51.792,73.075,51.792,70.651z M59.712,69.69v-1.463
		c-0.504,0.264-1.224,0.455-2.016,0.647c-1.512,0.336-2.136,0.72-2.136,1.656c0,0.983,0.72,1.368,1.68,1.368
		C58.704,71.899,59.712,71.011,59.712,69.69z"/>
	<path d="M65.351,61.794h3.768v1.681h0.072c0.912-1.32,2.088-2.04,3.793-2.04c2.688,0,4.271,1.92,4.271,4.656v7.992h-3.912v-7.2
		c0-1.296-0.648-2.185-1.92-2.185c-1.297,0-2.16,1.08-2.16,2.593v6.792h-3.913V61.794z"/>
	<path d="M78.742,74.372h3.793c0.216,0.647,0.864,1.199,2.16,1.199c1.656,0,2.352-0.863,2.352-2.352v-1.225h-0.096
		c-0.72,0.816-1.656,1.416-3.145,1.416c-2.76,0-5.328-2.064-5.328-5.832c0-3.601,2.112-6.145,5.16-6.145
		c1.633,0,2.736,0.648,3.457,1.68h0.048v-1.32h3.744v11.09c0,1.848-0.647,3.191-1.632,4.08c-1.08,0.96-2.688,1.368-4.513,1.368
		C81.359,78.332,79.127,76.94,78.742,74.372z M87.215,67.435c0-1.656-0.863-3.048-2.496-3.048c-1.463,0-2.424,1.2-2.424,3.072
		c0,1.849,0.961,3.048,2.424,3.048C86.424,70.507,87.215,69.163,87.215,67.435z"/>
	<path d="M92.206,67.915c0-3.672,2.568-6.48,6.313-6.48c1.752,0,3.144,0.576,4.199,1.536c1.465,1.344,2.185,3.479,2.16,5.977h-8.832
		c0.24,1.655,1.152,2.688,2.76,2.688c1.032,0,1.705-0.457,2.041-1.225h3.816c-0.265,1.104-0.984,2.16-2.064,2.904
		c-1.033,0.721-2.281,1.128-3.841,1.128C94.703,74.443,92.206,71.636,92.206,67.915z M100.919,66.618
		c-0.144-1.463-1.056-2.399-2.328-2.399c-1.488,0-2.257,0.937-2.521,2.399H100.919z"/>
</g>
<g>
	<g>
		<rect x="144.312" y="7.252" fill="#231F20" width="2.418" height="2.418"/>
		<rect x="144.312" y="9.67" fill="#231F20" width="2.418" height="2.417"/>
		<rect x="144.312" y="12.087" fill="#231F20" width="2.418" height="2.417"/>
		<rect x="144.312" y="14.504" fill="#231F20" width="2.418" height="2.418"/>
		<rect x="146.73" y="14.504" fill="#231F20" width="2.418" height="2.418"/>
		<rect x="149.148" y="14.504" fill="#231F20" width="2.418" height="2.418"/>
		<rect x="151.566" y="14.504" fill="#231F20" width="2.418" height="2.418"/>
	</g>
	<g>
		<rect x="144.312" fill="#231F20" width="2.418" height="2.418"/>
		<rect x="146.73" fill="#231F20" width="2.418" height="2.418"/>
		<rect x="149.148" fill="#231F20" width="2.416" height="2.418"/>
		<rect x="151.564" fill="#231F20" width="2.42" height="2.418"/>
		<rect x="151.564" y="2.418" fill="#231F20" width="2.42" height="2.417"/>
		<rect x="151.564" y="4.835" fill="#231F20" width="2.42" height="2.417"/>
		<rect x="151.564" y="7.252" fill="#231F20" width="2.42" height="2.418"/>
		<rect x="153.984" y="7.252" fill="#231F20" width="2.416" height="2.418"/>
		<rect x="156.4" y="7.252" fill="#231F20" width="2.418" height="2.418"/>
		<rect x="158.818" y="7.252" fill="#231F20" width="2.416" height="2.418"/>
		<rect x="158.818" y="9.67" fill="#231F20" width="2.416" height="2.417"/>
		<rect x="158.818" y="12.087" fill="#231F20" width="2.416" height="2.417"/>
		<rect x="158.818" y="14.504" fill="#231F20" width="2.416" height="2.418"/>
	</g>
</g>
</svg>
