<?xml version="1.0" encoding="utf-8"?>
<!-- Generator: Adobe Illustrator 16.0.4, SVG Export Plug-In . SVG Version: 6.00 Build 0)  -->
<!DOCTYPE svg PUBLIC "-//W3C//DTD SVG 1.1//EN" "http://www.w3.org/Graphics/SVG/1.1/DTD/svg11.dtd">
<svg version="1.1" id="Layer_1" xmlns="http://www.w3.org/2000/svg" xmlns:xlink="http://www.w3.org/1999/xlink" x="0px" y="0px"
	 width="112.003px" height="64.868px" viewBox="0 0 112.003 64.868" enable-background="new 0 0 112.003 64.868"
	 xml:space="preserve">
<g>
	<path d="M0,28.779h8.267v3.285h0.159c1.855-2.438,4.504-4.08,8.214-4.08c7.207,0,11.605,6.2,11.605,14.361
		c0,8.797-4.716,14.414-11.818,14.414c-3.498,0-5.988-1.378-7.684-3.656H8.638v11.765H0V28.779z M19.501,42.664
		c0-4.664-1.749-7.737-5.458-7.737c-3.762,0-5.67,3.339-5.67,7.737s2.12,7.419,5.829,7.419
		C17.488,50.083,19.501,47.274,19.501,42.664z"/>
	<path d="M31.641,18.021h8.744v37.891h-8.744V18.021z"/>
	<path d="M44.997,18.021h8.638v6.995h-8.638V18.021z M44.997,28.779h8.638v27.133h-8.638V28.779z"/>
	<path d="M65.931,41.657l-8.533-12.878h9.857l4.027,6.995h0.107l3.814-6.995h9.062l-8.055,12.771l9.221,14.361H75.417l-4.451-8.108
		h-0.107l-4.928,8.108h-9.434L65.931,41.657z"/>
</g>
<g>
	<g>
		<rect x="91.082" y="8.966" fill="#231F20" width="2.988" height="2.99"/>
		<rect x="91.082" y="11.956" fill="#231F20" width="2.988" height="2.988"/>
		<rect x="91.082" y="14.944" fill="#231F20" width="2.988" height="2.988"/>
		<rect x="91.082" y="17.933" fill="#231F20" width="2.988" height="2.989"/>
		<rect x="94.07" y="17.933" fill="#231F20" width="2.988" height="2.989"/>
		<rect x="97.058" y="17.933" fill="#231F20" width="2.99" height="2.989"/>
		<rect x="100.048" y="17.933" fill="#231F20" width="2.988" height="2.989"/>
	</g>
	<g>
		<rect x="91.082" fill="#231F20" width="2.988" height="2.989"/>
		<rect x="94.07" fill="#231F20" width="2.988" height="2.989"/>
		<rect x="97.058" fill="#231F20" width="2.99" height="2.989"/>
		<rect x="100.048" fill="#231F20" width="2.988" height="2.989"/>
		<rect x="100.048" y="2.989" fill="#231F20" width="2.988" height="2.988"/>
		<rect x="100.048" y="5.978" fill="#231F20" width="2.988" height="2.988"/>
		<rect x="100.048" y="8.966" fill="#231F20" width="2.988" height="2.99"/>
		<rect x="103.037" y="8.966" fill="#231F20" width="2.99" height="2.99"/>
		<rect x="106.027" y="8.966" fill="#231F20" width="2.988" height="2.99"/>
		<rect x="109.015" y="8.966" fill="#231F20" width="2.988" height="2.99"/>
		<rect x="109.015" y="11.956" fill="#231F20" width="2.988" height="2.988"/>
		<rect x="109.015" y="14.944" fill="#231F20" width="2.988" height="2.988"/>
		<rect x="109.015" y="17.933" fill="#231F20" width="2.988" height="2.989"/>
	</g>
</g>
</svg>
